<svg width="64" height="64" viewBox="0 0 64 64" fill="none" xmlns="http://www.w3.org/2000/svg">
<path d="M58.8045 5.1956C66.2991 12.6902 65.5896 25.551 57.2967 33.8439L42.2186 48.9219L15.0781 21.7815L30.1562 6.70341C38.4491 -1.58952 51.3099 -2.29904 58.8045 5.1956Z" fill="#FFD11A"/>
<path d="M27.1405 64L0 36.8595C8.32738 28.5322 21.1537 27.8571 28.6483 35.3517C36.143 42.8464 35.4679 55.6726 27.1405 64Z" fill="#404040"/>
<path d="M55.7889 62.4922L28.6484 35.3517C36.9758 27.0243 49.8021 26.3493 57.2968 33.8439C64.7914 41.3386 64.1163 54.1648 55.7889 62.4922Z" fill="#FFD11A"/>
<path d="M28.6483 35.3517L1.50781 8.21122C9.8352 -0.116158 22.6615 -0.791223 30.1561 6.70342C37.6508 14.1981 36.9757 27.0243 28.6483 35.3517Z" fill="#FFD11A"/>
</svg>
