<svg width="40" height="41" viewBox="0 0 40 41" fill="none" xmlns="http://www.w3.org/2000/svg">
<path d="M26.6665 40.5V33.8334C30.3554 33.8334 33.3332 30.8556 33.3332 27.1667H39.9998C39.9998 34.5445 34.0221 40.5 26.6665 40.5Z" fill="#FFD11A"/>
<path d="M26.6666 40.5V33.8334C22.9777 33.8334 19.9999 30.8556 19.9999 27.1667H13.3333C13.3333 34.5445 19.311 40.5 26.6666 40.5Z" fill="#FFD11A"/>
<path d="M0 27.1666H6.66667C6.66667 30.8555 9.64444 33.8333 13.3333 33.8333V40.5C5.97778 40.5 0 34.5444 0 27.1666Z" fill="#FFD11A"/>
<path d="M0 27.1666H6.66667C6.66667 23.4778 9.64444 20.5 13.3333 20.5V13.8333C5.97778 13.8333 0 19.8111 0 27.1666Z" fill="#FFD11A"/>
<path d="M13.3333 0.5V7.16667C9.64444 7.16667 6.66667 10.1444 6.66667 13.8333H0C0 6.47778 5.97778 0.5 13.3333 0.5Z" fill="#FFD11A"/>
<path d="M13.3333 0.5V7.16667C17.0221 7.16667 19.9999 10.1444 19.9999 13.8333H26.6666C26.6666 6.47778 20.6888 0.5 13.3333 0.5Z" fill="#FFD11A"/>
<path d="M40.0001 13.8333H33.3334C33.3334 10.1444 30.3556 7.16667 26.6667 7.16667V0.5C34.0223 0.5 40.0001 6.47778 40.0001 13.8333Z" fill="#FFD11A"/>
<path d="M40.0001 13.8333H33.3334C33.3334 17.5222 30.3556 20.5 26.6667 20.5V27.1666C34.0223 27.1666 40.0001 21.2111 40.0001 13.8333Z" fill="#FFD11A"/>
</svg>
